{
	"asset":{
		"generator":"Khronos glTF Blender I/O v3.6.27",
		"version":"2.0"
	},
	"scene":0,
	"scenes":[
		{
			"name":"Scene",
			"nodes":[
				0
			]
		}
	],
	"nodes":[
		{
			"mesh":0,
			"name":"Cube.001"
		}
	],
	"materials":[
		{
			"doubleSided":true,
			"name":"Material.001",
			"pbrMetallicRoughness":{
				"baseColorFactor":[
					0.800000011920929,
					0.800000011920929,
					0.800000011920929,
					1
				],
				"metallicFactor":0,
				"roughnessFactor":0.5
			}
		}
	],
	"meshes":[
		{
			"name":"Cube.001",
			"primitives":[
				{
					"attributes":{
						"POSITION":0,
						"NORMAL":1,
						"TEXCOORD_0":2
					},
					"indices":3,
					"material":0
				}
			]
		}
	],
	"accessors":[
		{
			"bufferView":0,
			"componentType":5126,
			"count":101,
			"max":[
				3,
				2,
				2
			],
			"min":[
				-3,
				0,
				-4
			],
			"type":"VEC3"
		},
		{
			"bufferView":1,
			"componentType":5126,
			"count":101,
			"type":"VEC3"
		},
		{
			"bufferView":2,
			"componentType":5126,
			"count":101,
			"type":"VEC2"
		},
		{
			"bufferView":3,
			"componentType":5123,
			"count":264,
			"type":"SCALAR"
		}
	],
	"bufferViews":[
		{
			"buffer":0,
			"byteLength":1212,
			"byteOffset":0,
			"target":34962
		},
		{
			"buffer":0,
			"byteLength":1212,
			"byteOffset":1212,
			"target":34962
		},
		{
			"buffer":0,
			"byteLength":808,
			"byteOffset":2424,
			"target":34962
		},
		{
			"buffer":0,
			"byteLength":528,
			"byteOffset":3232,
			"target":34963
		}
	],
	"buffers":[
		{
			"byteLength":3760,
			"uri":"data:application/octet-stream;base64,"
		}
	]
}
